<?xml version="1.0" standalone="no"?>
<!DOCTYPE svg PUBLIC "-//W3C//DTD SVG 20010904//EN"
 "http://www.w3.org/TR/2001/REC-SVG-20010904/DTD/svg10.dtd">
<svg version="1.0" xmlns="http://www.w3.org/2000/svg"
 width="500.000000pt" height="141.000000pt" viewBox="0 0 500.000000 141.000000"
 preserveAspectRatio="xMidYMid meet">

<g transform="translate(0.000000,141.000000) scale(0.100000,-0.100000)"
fill="#000000" stroke="none">
<path d="M293 1272 c-128 -75 -231 -141 -230 -146 2 -4 143 -94 315 -199 l312
-190 0 -364 c0 -199 3 -363 6 -363 9 0 436 251 456 268 17 14 18 45 18 378 l0
362 -320 196 c-177 108 -322 196 -323 196 -1 -1 -107 -63 -234 -138z"/>
<path d="M1590 666 l0 -356 70 0 70 0 0 125 0 125 90 0 c112 0 176 14 232 49
61 39 83 86 83 181 0 104 -27 153 -109 195 -59 30 -61 30 -248 34 l-188 3 0
-356z m327 233 c69 -26 98 -94 69 -162 -21 -52 -58 -67 -166 -67 l-90 0 0 120
0 120 79 0 c44 0 92 -5 108 -11z"/>
<path d="M3210 665 l0 -355 65 0 65 0 0 355 0 355 -65 0 -65 0 0 -355z"/>
<path d="M4870 900 c0 -73 -4 -120 -10 -120 -5 0 -10 4 -10 9 0 16 -64 50
-106 57 -91 14 -182 -42 -225 -139 -29 -66 -32 -199 -5 -261 42 -99 107 -146
201 -146 57 0 101 16 124 44 19 23 31 20 31 -9 0 -24 2 -25 65 -25 l65 0 0
355 0 355 -65 0 -65 0 0 -120z m-51 -186 c52 -43 68 -161 32 -239 -22 -50 -40
-64 -84 -72 -80 -13 -131 54 -131 172 0 108 40 165 115 165 26 0 47 -8 68 -26z"/>
<path d="M2310 835 c-52 -16 -107 -65 -126 -112 -21 -50 -19 -53 46 -53 55 0
61 2 70 24 13 36 49 56 100 56 56 0 88 -28 92 -80 3 -31 0 -35 -22 -38 -83 -9
-192 -37 -233 -60 -110 -60 -108 -195 3 -252 77 -39 228 -18 258 37 8 13 11
11 17 -15 6 -31 8 -32 63 -32 l57 0 -3 183 c-4 202 -15 257 -61 301 -54 52
-168 69 -261 41z m190 -321 c0 -48 -25 -99 -56 -113 -44 -20 -102 -14 -129 14
-59 58 -13 105 125 128 58 10 60 9 60 -29z"/>
<path d="M3572 831 c-66 -23 -126 -79 -149 -140 -23 -59 -23 -191 -1 -242 23
-53 73 -104 125 -129 39 -18 60 -21 128 -18 69 2 88 7 123 31 87 57 131 161
118 276 -14 113 -78 196 -177 225 -67 20 -101 20 -167 -3z m153 -113 c38 -29
55 -76 55 -148 0 -110 -40 -165 -120 -165 -80 0 -120 55 -120 165 0 106 45
170 120 170 23 0 48 -8 65 -22z"/>
<path d="M4116 835 c-73 -26 -136 -92 -136 -141 0 -23 4 -24 60 -24 47 0 60 3
60 15 0 9 11 27 25 40 19 20 34 25 75 25 55 0 85 -20 96 -65 10 -42 0 -52 -66
-59 -95 -11 -187 -43 -227 -80 -30 -27 -36 -41 -40 -82 -9 -100 63 -164 183
-164 73 0 109 11 147 48 l27 26 0 -32 0 -32 63 0 63 0 -7 58 c-4 31 -8 115 -8
186 -1 154 -12 195 -62 241 -60 54 -167 71 -253 40z m182 -342 c-6 -74 -36
-103 -106 -103 -62 0 -92 21 -92 64 0 51 35 72 150 89 54 9 53 11 48 -50z"/>
<path d="M2650 833 c0 -4 43 -120 95 -257 52 -137 95 -259 95 -271 0 -39 -35
-65 -90 -65 l-50 0 0 -50 0 -50 74 0 c89 0 128 22 162 91 27 54 224 580 224
598 0 8 -18 11 -62 9 l-63 -3 -60 -182 c-33 -101 -62 -183 -65 -183 -3 0 -30
82 -61 183 l-56 182 -71 3 c-40 2 -72 -1 -72 -5z"/>
<path d="M235 474 c-126 -75 -231 -137 -232 -138 -3 -2 463 -286 471 -286 3 0
6 126 6 280 0 154 -3 280 -7 280 -5 0 -111 -61 -238 -136z"/>
</g>
</svg>
